<svg id="Layer_1" data-name="Layer 1" xmlns="http://www.w3.org/2000/svg" viewBox="0 0 96 64"><defs><style>.cls-1{fill:#999;}.cls-2{fill:#e6e6e6;}</style></defs><title>elipse</title><ellipse class="cls-1" cx="48" cy="32" rx="45.5" ry="29.5"/><path class="cls-2" d="M48,21c11.85,0,22.91,3,31.17,8.53C86.8,34.62,91,41.18,91,48S86.8,61.38,79.17,66.47C70.91,72,59.85,75,48,75s-22.91-3-31.17-8.53C9.2,61.38,5,54.82,5,48S9.2,34.62,16.83,29.53C25.09,24,36.15,21,48,21m0-5C21.49,16,0,30.33,0,48S21.49,80,48,80,96,65.67,96,48,74.51,16,48,16Z" transform="translate(0 -16)"/></svg>