<?xml version="1.0" encoding="utf-8"?>
<!-- Generator: Adobe Illustrator 22.0.1, SVG Export Plug-In . SVG Version: 6.00 Build 0)  -->
<svg version="1.1" id="Layer_1" xmlns="http://www.w3.org/2000/svg" xmlns:xlink="http://www.w3.org/1999/xlink" x="0px" y="0px"
	 viewBox="0 0 96 96" style="enable-background:new 0 0 96 96;" xml:space="preserve">
<style type="text/css">
	.st0{clip-path:url(#SVGID_2_);}
	.st1{clip-path:url(#SVGID_4_);fill:#999999;}
	.st2{clip-path:url(#SVGID_4_);fill:#E6E6E6;}
</style>
<g>
	<g>
		<defs>
			<rect id="SVGID_1_" y="16" width="96" height="64"/>
		</defs>
		<clipPath id="SVGID_2_">
			<use xlink:href="#SVGID_1_"  style="overflow:visible;"/>
		</clipPath>
		<g class="st0">
			<defs>
				<rect id="SVGID_3_" y="16" width="96" height="64"/>
			</defs>
			<clipPath id="SVGID_4_">
				<use xlink:href="#SVGID_3_"  style="overflow:visible;"/>
			</clipPath>
			<path class="st1" d="M48,79.5C21.8,79.5,0.5,65.4,0.5,48S21.8,16.5,48,16.5S95.5,30.6,95.5,48S74.2,79.5,48,79.5"/>
			<path class="st2" d="M48,17c25.9,0,47,13.9,47,31c0,17.1-21.1,31-47,31S1,65.1,1,48C1,30.9,22.1,17,48,17 M48,16
				C21.5,16,0,30.3,0,48s21.5,32,48,32s48-14.3,48-32S74.5,16,48,16"/>
		</g>
	</g>
</g>
</svg>
